# xmcd
#
# Track frame offsets:
#	150
#	13623
#	35678
#	52395
#	73702
#	97070
#	119477
#	136645
#	155969
#	175641
#	193206
#	218690
#
# Disc length: 3204 seconds
# Revision: 3
# Processed by: cddbd v1.5.2PL0 Copyright (c) Steve Scherf et al.
# Submitted via: dBpowerAMP V12.0
#
DISCID=b50c820c
DTITLE=Francine Reed - I Want You to Love me
DYEAR=1995
DGENRE=Soul
TTITLE0=Why I Don't Know (Feat. Lyle Lovett)
TTITLE1=Leavin' Town
TTITLE2=One Monkey (Don't Stop no Show)
TTITLE3=Gathering up my Love
TTITLE4=Trouble in Mind
TTITLE5=Crack The Bone
TTITLE6=I Want You to Love me
TTITLE7=What is That Light
TTITLE8=Grady's Song
TTITLE9=Evil Gal
TTITLE10=For Your Precious Love
TTITLE11=Wild Women
EXTD=
EXTT0=
EXTT1=
EXTT2=
EXTT3=
EXTT4=
EXTT5=
EXTT6=
EXTT7=
EXTT8=
EXTT9=
EXTT10=
EXTT11=
PLAYORDER=
